# xmcd
# 
# Track frame offsets:
#     150
#     17751
#     32475
#     52350
#     68100
#     82125
#     102825
# 
# Disc length: 1614
# 
# Revision: 0
# Processed by: cddbd v1.5.2PL0 Copyright (c) Steve Scherf et al.
# Submitted via: BonkEnc v1.0.6
# 
DISCID=5a064c07
DTITLE=Jim and Andrea Cannon - Hear My Cry, Oh Lord
DYEAR=0
DGENRE=Worship Music
TTITLE0=Hear My Cry, Oh Lord
TTITLE1=Psalm 105
TTITLE2=I Choose To Gloorify
TTITLE3=Your Name
TTITLE4=You Are The King
TTITLE5=Only In Your Name
TTITLE6=To Worship You
EXTD=
EXTT0=
EXTT1=
EXTT2=
EXTT3=
EXTT4=
EXTT5=
EXTT6=
PLAYORDER=
